{"title":"Gutter.King.2010.DVDRip.XviD.FEEL-FREE","uid":5615233,"size":936278373,"categoryP":"video","categoryS":"movies","magnet":"?xt=urn:btih:474d791804d801326cfc7efcf83ff3cb048614bb&amp;dn=Gutter.King.2010.DVDRip.XviD.FEEL-FREE&amp;tr=udp%3A%2F%2Ftracker.openbittorrent.com%3A80&amp;tr=udp%3A%2F%2Fopen.demonii.com%3A1337&amp;tr=udp%3A%2F%2Ftracker.coppersurfer.tk%3A6969&amp;tr=udp%3A%2F%2Fexodus.desync.com%3A6969","seeders":0,"leechers":1,"uploader":"neon","files":-1,"time":1276037378,"description":"Gutter.King.2010.DVDRip.XviD.FEEL-FREE\n\nGenre:Action | Thriller\nLanguage:English\nIMDb:http://www.imdb.com/title/tt1286746/\n\nGeneral\nComplete name : Gutter.King.2010.DVDRip.XviD.FEEL-FREE\nFormat : AVI\nFormat/Info : Audio Video Interleave\nFile size : 892 MiB\nDuration : 1h 36mn\nOverall bit rate : 1 297 Kbps\n\nVideo\nID : 0\nFormat : MPEG-4 Visual\nCodec ID : DIV3\nCodec ID/Hint : DivX 3 Low\nDuration : 1h 36mn\nBit rate : 1 157 Kbps\nWidth : 704 pixels\nHeight : 304 pixels\nDisplay aspect ratio : 2.35:1\nFrame rate : 25.000 fps\nResolution : 24 bits\nBits/(Pixel*Frame) : 0.216\nStream size : 796 MiB (89%)\n\nAudio\nID : 1\nFormat : MPEG Audio\nFormat version : Version 1\nFormat profile : Layer 3\nFormat settings, Mode : Joint stereo / MS Stereo\nCodec ID : 55\nCodec ID/Hint : MP3\nDuration : 1h 36mn\nBit rate mode : Constant\nBit rate : 128 Kbps\nChannel(s) : 2 channels\nSampling rate : 44.1 KHz\nResolution : 16 bits\nStream size : 88.0 MiB (10%)\nAlignment : Aligned on interleaves\nInterleave, duration : 26 ms (0.65 video frame)\nInterleave, preload duration : 26 ms\nWriting library : LAME3.97\n\nPlot:\nGutter King is an urban coming-of-age fight drama about a tough street kid just released from the Juvenile Department of Corrections...","torrent":{"xt":"urn:btih:474d791804d801326cfc7efcf83ff3cb048614bb","amp;dn":"Gutter.King.2010.DVDRip.XviD.FEEL-FREE","amp;tr":["udp%3A%2F%2Ftracker.openbittorrent.com%3A80","udp%3A%2F%2Fopen.demonii.com%3A1337","udp%3A%2F%2Ftracker.coppersurfer.tk%3A6969","udp%3A%2F%2Fexodus.desync.com%3A6969"],"infoHash":"474d791804d801326cfc7efcf83ff3cb048614bb","infoHashBuffer":{"type":"Buffer","data":[71,77,121,24,4,216,1,50,108,252,126,252,248,63,243,203,4,134,20,187]},"announce":[],"urlList":[]}}